<svg width="212" height="10" viewBox="0 0 212 10" class="diagonal-line-svg" fill="none" xmlns="http://www.w3.org/2000/svg">
<line x1="0.636193" y1="8.85767" x2="8.05374" y2="1.44012" stroke="#797373"/>
<line x1="8.63619" y1="8.85767" x2="16.0537" y2="1.44012" stroke="#797373"/>
<line x1="4.63619" y1="8.85767" x2="12.0537" y2="1.44012" stroke="#797373"/>
<line x1="13.6362" y1="8.85767" x2="21.0537" y2="1.44012" stroke="#797373"/>
<line x1="21.6362" y1="8.85767" x2="29.0537" y2="1.44012" stroke="#797373"/>
<line x1="17.6362" y1="8.85767" x2="25.0537" y2="1.44012" stroke="#797373"/>
<path d="M26.561 8.95397L33.9786 1.53642" stroke="#797373"/>
<line x1="34.6362" y1="8.85767" x2="42.0537" y2="1.44012" stroke="#797373"/>
<line x1="30.6362" y1="8.85767" x2="38.0537" y2="1.44012" stroke="#797373"/>
<line x1="39.6362" y1="8.85767" x2="47.0537" y2="1.44012" stroke="#797373"/>
<line x1="47.6362" y1="8.85767" x2="55.0537" y2="1.44012" stroke="#797373"/>
<line x1="43.6362" y1="8.85767" x2="51.0537" y2="1.44012" stroke="#797373"/>
<line x1="52.6362" y1="8.85767" x2="60.0537" y2="1.44012" stroke="#797373"/>
<line x1="60.6362" y1="8.85767" x2="68.0537" y2="1.44012" stroke="#797373"/>
<line x1="56.6362" y1="8.85767" x2="64.0537" y2="1.44012" stroke="#797373"/>
<line x1="65.6362" y1="8.85767" x2="73.0537" y2="1.44012" stroke="#797373"/>
<line x1="73.6362" y1="8.85767" x2="81.0537" y2="1.44012" stroke="#797373"/>
<line x1="69.6362" y1="8.85767" x2="77.0537" y2="1.44012" stroke="#797373"/>
<line x1="78.6362" y1="8.85767" x2="86.0537" y2="1.44012" stroke="#797373"/>
<line x1="86.6362" y1="8.85767" x2="94.0537" y2="1.44012" stroke="#797373"/>
<line x1="82.6362" y1="8.85767" x2="90.0537" y2="1.44012" stroke="#797373"/>
<line x1="91.6362" y1="8.85767" x2="99.0537" y2="1.44012" stroke="#797373"/>
<line x1="99.6362" y1="8.85767" x2="107.054" y2="1.44012" stroke="#797373"/>
<line x1="95.6362" y1="8.85767" x2="103.054" y2="1.44012" stroke="#797373"/>
<line x1="104.646" y1="8.32124" x2="112.064" y2="0.903694" stroke="#797373"/>
<line x1="112.646" y1="8.32124" x2="120.064" y2="0.903694" stroke="#797373"/>
<line x1="108.646" y1="8.32124" x2="116.064" y2="0.903694" stroke="#797373"/>
<line x1="117.646" y1="8.32124" x2="125.064" y2="0.903694" stroke="#797373"/>
<line x1="125.646" y1="8.32124" x2="133.064" y2="0.903694" stroke="#797373"/>
<line x1="121.646" y1="8.32124" x2="129.064" y2="0.903694" stroke="#797373"/>
<path d="M130.571 8.41755L137.989 0.999999" stroke="#797373"/>
<line x1="138.646" y1="8.32124" x2="146.064" y2="0.903694" stroke="#797373"/>
<line x1="134.646" y1="8.32124" x2="142.064" y2="0.903694" stroke="#797373"/>
<line x1="143.646" y1="8.32124" x2="151.064" y2="0.903694" stroke="#797373"/>
<line x1="151.646" y1="8.32124" x2="159.064" y2="0.903694" stroke="#797373"/>
<line x1="147.646" y1="8.32124" x2="155.064" y2="0.903694" stroke="#797373"/>
<line x1="156.646" y1="8.32124" x2="164.064" y2="0.903694" stroke="#797373"/>
<line x1="164.646" y1="8.32124" x2="172.064" y2="0.903694" stroke="#797373"/>
<line x1="160.646" y1="8.32124" x2="168.064" y2="0.903694" stroke="#797373"/>
<line x1="169.646" y1="8.32124" x2="177.064" y2="0.903694" stroke="#797373"/>
<line x1="177.646" y1="8.32124" x2="185.064" y2="0.903694" stroke="#797373"/>
<line x1="173.646" y1="8.32124" x2="181.064" y2="0.903694" stroke="#797373"/>
<line x1="182.646" y1="8.32124" x2="190.064" y2="0.903694" stroke="#797373"/>
<line x1="190.646" y1="8.32124" x2="198.064" y2="0.903694" stroke="#797373"/>
<line x1="186.646" y1="8.32124" x2="194.064" y2="0.903694" stroke="#797373"/>
<line x1="195.646" y1="8.32124" x2="203.064" y2="0.903694" stroke="#797373"/>
<line x1="203.646" y1="8.32124" x2="211.064" y2="0.903694" stroke="#797373"/>
<line x1="199.646" y1="8.32124" x2="207.064" y2="0.903694" stroke="#797373"/>
</svg>
