<svg id="Capa_1" enable-background="new 0 0 512 512" height="512" viewBox="0 0 512 512" width="512" xmlns="http://www.w3.org/2000/svg"><g><g><g><g><path d="m400.119 63.422v373.746h-101.965-186.273v-373.746" fill="#e5ecec"/></g></g><g><path d="m400.119 437.168v38.304c0 14.651-11.881 26.528-26.537 26.528h-235.165c-14.656 0-26.537-11.877-26.537-26.528v-38.304z" fill="#8481e2"/></g><g><g><path d="m263.23 480.585h-14.46c-5.523 0-10-4.477-10-10s4.477-10 10-10h14.46c5.523 0 10 4.477 10 10 0 5.522-4.477 10-10 10z"/></g></g><g><g><path d="m111.881 63.422v-26.894c0-14.651 11.881-26.528 26.537-26.528h235.165c14.656 0 26.537 11.877 26.537 26.528v26.894z" fill="#9bc6ff"/></g><path d="m373.582 0h-235.165c-20.146 0-36.537 16.387-36.537 36.528v438.943c0 20.142 16.391 36.528 36.537 36.528h235.165c20.147 0 36.537-16.387 36.537-36.528v-438.943c.001-20.141-16.39-36.528-36.537-36.528zm-251.702 73.422h268.24v353.745h-268.24zm0-36.894c0-9.114 7.418-16.528 16.537-16.528h235.165c9.119 0 16.537 7.415 16.537 16.528v16.894h-268.239zm268.24 438.944c0 9.114-7.418 16.528-16.537 16.528h-235.166c-9.119 0-16.537-7.415-16.537-16.528v-28.304h268.24z"/></g></g><g><g><path d="m204.38 295.234c-30.94-17.866-51.756-51.293-51.756-89.584 0-57.089 46.287-103.376 103.376-103.376s103.376 46.287 103.376 103.376c0 38.291-20.815 71.718-51.756 89.584" fill="#ffd89e"/></g><g><g><ellipse cx="256" cy="183.325" fill="#ffcbbe" rx="42.329" ry="42.329" transform="matrix(.172 -.985 .985 .172 31.469 404.073)"/></g><g><g><g><path d="m307.62 266.976v28.257c-15.187 8.77-32.822 13.792-51.62 13.792s-36.433-5.022-51.62-13.792v-28.257c0-7.789 6.322-14.111 14.111-14.111h75.019c7.788 0 14.11 6.322 14.11 14.111z" fill="#f5737f"/></g><g><path d="m256 92.273c-62.516 0-113.376 50.86-113.376 113.376 0 40.385 21.748 78.03 56.755 98.244 17.144 9.899 36.723 15.132 56.621 15.132s39.477-5.232 56.621-15.132c35.008-20.214 56.755-57.859 56.755-98.244 0-62.515-50.86-113.376-113.376-113.376zm41.62 196.985c-12.86 6.404-27.135 9.767-41.62 9.767s-28.76-3.363-41.62-9.767v-22.282c0-2.267 1.844-4.111 4.111-4.111h75.019c2.267 0 4.111 1.844 4.111 4.111v22.282zm20-13.465v-8.816c0-13.295-10.816-24.111-24.111-24.111h-75.019c-13.295 0-24.111 10.816-24.111 24.111v8.816c-19.919-17.559-31.756-43.106-31.756-70.143 0-51.488 41.888-93.376 93.376-93.376s93.376 41.888 93.376 93.376c.001 27.036-11.836 52.583-31.755 70.143z"/><path d="m256 130.996c-28.854 0-52.329 23.475-52.329 52.329s23.475 52.33 52.329 52.33 52.329-23.475 52.329-52.33-23.475-52.329-52.329-52.329zm0 84.658c-17.826 0-32.329-14.503-32.329-32.33 0-17.826 14.503-32.329 32.329-32.329s32.329 14.503 32.329 32.329c0 17.827-14.503 32.33-32.329 32.33z"/></g></g></g></g></g><g><g><g><g><g><g><path d="m159.19 398.52c-4.114 0-7.905-2.627-9.35-6.477-1.476-3.932-.289-8.53 2.961-11.212 3.098-2.557 7.558-3.017 11.101-1.122 3.738 1.999 5.847 6.259 5.157 10.445-.786 4.766-5.045 8.366-9.869 8.366z"/></g></g><g><g><path d="m352.808 398.522h-148.626c-5.523 0-10-4.477-10-10s4.477-10 10-10h148.626c5.523 0 10 4.477 10 10 0 5.522-4.477 10-10 10z"/></g></g></g></g><g><g><g><g><path d="m159.19 357.46c-4.117 0-7.89-2.619-9.347-6.464-1.489-3.929-.291-8.544 2.958-11.225 3.098-2.557 7.557-3.017 11.101-1.122 3.767 2.015 5.881 6.325 5.134 10.536-.837 4.723-5.043 8.275-9.846 8.275z"/></g></g><g><g><path d="m352.808 357.462h-148.626c-5.523 0-10-4.477-10-10s4.477-10 10-10h148.626c5.523 0 10 4.477 10 10s-4.477 10-10 10z"/></g></g></g></g></g></g></g></svg>